<?xml version="1.0" encoding="UTF-8"?><svg id="_图层_1" xmlns="http://www.w3.org/2000/svg" viewBox="0 0 512 512"><path d="M415.4,512H96.6c-53.4,0-96.6-43.2-96.6-96.6V96.6C0,43.2,43.2,0,96.6,0H415.4c53.4,0,96.6,43.2,96.6,96.6V415.4c0,53.4-43.2,96.6-96.6,96.6Z" style="fill:#e75;"/><path d="M385.9,31.6c-2-4.8-6.5-3.3-10.1-2.3-54.2,15.5-107,33.8-153.4,67.4-42.2,30.6-77.7,65.7-87.6,119.8-9.4,52,17.2,89.9,68.7,97.6,4.2,.6,8.4,.7,13.2,1.1-5,14.4-9.8,28-14.3,41.7-1.2,3.6-3.2,5.5-6.9,6.2-20.6,4.3-39.7,12.7-58.2,22.2-8.6,4.4-15.4,11.6-9.7,21.7,5.5,9.8,14.6,7.9,23.2,3.5,12.7-6.5,25.3-13,40.3-16.6-.8,3.8-1.4,6.6-2.1,9.4-4.6,19.1-12.4,37.5-12.6,57.4-.1,11.1,5.1,19.6,16.4,22.2,11.5,2.7,20.7-1.6,25.4-12.5,3.4-7.9,6-16.3,8-24.6,4.8-20.5,9.1-41.2,13.7-62.4,28.3-2.9,56-5.3,83,5.9,8.1,3.4,8.9,7.8,4,14.5-17.1,23.3-34.8,46-56.5,65.2,28.9-6.4,54.3-20.1,75.4-40.7,25.5-24.9,18.4-53.9-15-66.1-25-9.2-50.8-9.6-76.9-8.1-2.9,.2-5.8,0-10.4,0,4-15.8,7.7-30.7,11.5-45.7,2.1-.7,3.8-1.4,5.5-2,41.3-14.8,74.8-37.6,88-82.6,13.1-44.9,5.5-79.4-23.8-102.3-10.9-8.5-23.2-14.4-37.7-17.9,2.2-2,3.2-2.9,4.2-3.7,27.2-23.7,59.1-40.4,89.4-59.5,3.1-2,7.3-4,5.3-8.8h0Zm-94.6,185.7c-16.7,24.9-41.9,37.8-70.7,42.9-26.4,4.6-41.7-11.8-38-39.6,2.8-21.2,11.5-40.8,26.1-55.7,11.1-11.3,28.7-9.4,46.3-10.7,3.3,.4,8.8,.8,14.1,1.8,38.6,7.8,41.1,33,22.2,61.3h0Z" style="fill:#feebc0;"/><path d="M203.7,221.5c-.8,4.1,.1,7.7,3.6,10.2,3.5,2.6,7.8,2.7,10.7,0,12.4-12,24.9-22.8,41.2-12,8.4-.3,14.4-1.3,16-8.4,2-8.5-1.6-15.1-9-19.3-25-14.1-57.2,1.1-62.5,29.5h0Z" style="fill:#feebc0;"/></svg>