<svg xmlns="http://www.w3.org/2000/svg" viewBox="0 0 308.04 489.18"><path d="M161.9,180.78c16.61,1.47,32.82,4.24,48.23,10.44,27.09,10.91,49.79,27.7,67.3,51.2,22.45,30.12,32.76,64.2,30.24,101.49-3.05,44.97-22.42,82.13-57.55,110.67-20.15,16.38-42.88,27.36-68.63,31.95-33.89,6.04-66.18,1.91-97.01-13.79-32.92-16.76-56.23-42.59-71.45-75.73C4.72,378.93,.23,359.53,.2,339.54-.01,227.27,.03,115,0,2.73,0,1.95,.12,1.17,.2,.18,19.64-.99,37.54,3.51,53.46,14.47c26.98,18.57,38.39,44.88,37.98,77.22-.42,33.24-.12,66.49-.12,99.74,0,1.05,.13,2.1,.23,3.68,16.79-8.1,34.15-12.6,52.73-13.86V1.44c27.26-2.07,51,6.55,71.89,23.26,35.25,28.2,43.75,77.06,35.59,105.06h-9.84c-1.3-23.56-12.25-41.4-32.44-53.11-14.59-8.46-30.68-10.77-47.58-9.07v113.22Zm-17.05,74.05c-34.05,.04-88.27,31.53-91.06,95.53-2.34,53.71,39.64,98.81,91.45,102.59,65.18,4.76,111.11-48.26,107.72-106.06-3.26-55.61-50.19-91.18-90.5-92.17v54.47c26.72,6.02,53.24,28.88,44.84,67.65-4.39,20.27-24.48,41.37-53.27,41.39-29.69,.02-52.05-20.23-55.62-49.37-3.01-24.56,11.57-51.4,46.45-59.76v-54.27Z"/></svg>